<svg xmlns="http://www.w3.org/2000/svg" xmlns:xlink="http://www.w3.org/1999/xlink" version="1.1" style="" xml:space="preserve" width="636.1" height="140.4"><rect id="backgroundrect" width="100%" height="100%" x="0" y="0" fill="none" stroke="none"/>
<style type="text/css">
	.st0{fill:url(#SVGID_1_);}
	.st1{fill:url(#SVGID_2_);}
	.st2{fill:url(#SVGID_3_);}
	.st3{fill:url(#SVGID_4_);}
	.st4{fill:url(#SVGID_5_);}
	.st5{fill:url(#SVGID_6_);}
	.st6{fill:url(#SVGID_7_);}
	.st7{fill:url(#SVGID_8_);}
	.st8{fill:url(#SVGID_9_);}
</style>
<linearGradient id="SVGID_1_" gradientUnits="userSpaceOnUse" x1="-14.647000312805176" y1="54.292198181152344" x2="656.5567016601562" y2="54.292198181152344">
	<stop offset="1.502404e-03" style="stop-color:#DA8CFF"/>
	<stop offset="1" style="stop-color:#9A55FF"/>
</linearGradient>

<linearGradient id="SVGID_2_" gradientUnits="userSpaceOnUse" x1="-14.647000312805176" y1="64.76000213623047" x2="656.5567016601562" y2="64.76000213623047">
	<stop offset="1.502404e-03" style="stop-color:#DA8CFF"/>
	<stop offset="1" style="stop-color:#9A55FF"/>
</linearGradient>

<linearGradient id="SVGID_3_" gradientUnits="userSpaceOnUse" x1="-14.647000312805176" y1="63.922401428222656" x2="656.5567016601562" y2="63.922401428222656">
	<stop offset="1.502404e-03" style="stop-color:#DA8CFF"/>
	<stop offset="1" style="stop-color:#9A55FF"/>
</linearGradient>

<linearGradient id="SVGID_4_" gradientUnits="userSpaceOnUse" x1="-14.647000312805176" y1="82.48490142822266" x2="656.5567016601562" y2="82.48490142822266">
	<stop offset="1.502404e-03" style="stop-color:#DA8CFF"/>
	<stop offset="1" style="stop-color:#9A55FF"/>
</linearGradient>

<linearGradient id="SVGID_5_" gradientUnits="userSpaceOnUse" x1="-14.647000312805176" y1="51.64039993286133" x2="656.5567016601562" y2="51.64039993286133">
	<stop offset="1.502404e-03" style="stop-color:#DA8CFF"/>
	<stop offset="1" style="stop-color:#9A55FF"/>
</linearGradient>

<linearGradient id="SVGID_6_" gradientUnits="userSpaceOnUse" x1="-14.647000312805176" y1="64.41059875488281" x2="656.5567016601562" y2="64.41059875488281">
	<stop offset="1.502404e-03" style="stop-color:#DA8CFF"/>
	<stop offset="1" style="stop-color:#9A55FF"/>
</linearGradient>




<g class="currentLayer" style=""><title>Layer 1</title><g id="svg_7">
	<g id="svg_8">
		<linearGradient id="SVGID_7_" gradientUnits="userSpaceOnUse" x1="-14.647000312805176" y1="33.74829864501953" x2="656.5567016601562" y2="33.74829864501953">
			<stop offset="1.502404e-03" style="stop-color:#DA8CFF"/>
			<stop offset="1" style="stop-color:#9A55FF"/>
		</linearGradient>
		<path class="st6" d="M100.2,30L53.1,6.5c-1.2-0.6-2.5-0.6-3.7,0L2.3,30C0.9,30.7,0,32.2,0,33.7c0,1.6,0.9,3,2.3,3.7L49.4,61    c0.6,0.3,1.2,0.4,1.9,0.4c0.6,0,1.3-0.1,1.9-0.4l47.1-23.5c1.4-0.7,2.3-2.1,2.3-3.7C102.5,32.2,101.6,30.7,100.2,30z M51.2,52.7    L13.4,33.7l37.8-18.9l37.8,18.9L51.2,52.7z" id="svg_9"/>
	</g>
</g><g id="svg_10">
	<g id="svg_11">
		<linearGradient id="SVGID_8_" gradientUnits="userSpaceOnUse" x1="-14.647000312805176" y1="92.60759735107422" x2="656.5567016601562" y2="92.60759735107422">
			<stop offset="1.502404e-03" style="stop-color:#DA8CFF"/>
			<stop offset="1" style="stop-color:#9A55FF"/>
		</linearGradient>
		<path class="st7" d="M102,79c-1-2-3.5-2.9-5.6-1.9L51.2,99.8L6,77.1c-2-1-4.5-0.2-5.6,1.9c-1,2-0.2,4.5,1.9,5.6l47.1,23.5    c0.6,0.3,1.2,0.4,1.9,0.4c0.6,0,1.3-0.1,1.9-0.4l47.1-23.5C102.2,83.5,103,81,102,79z" id="svg_12"/>
	</g>
</g><g id="svg_13">
	<g id="svg_14">
		<linearGradient id="SVGID_9_" gradientUnits="userSpaceOnUse" x1="-14.647000312805176" y1="69.0636978149414" x2="656.5567016601562" y2="69.0636978149414">
			<stop offset="1.502404e-03" style="stop-color:#DA8CFF"/>
			<stop offset="1" style="stop-color:#9A55FF"/>
		</linearGradient>
		<path class="st8" d="M102,55.4c-1-2-3.5-2.9-5.6-1.9L51.2,76.2L6,53.6c-2-1-4.5-0.2-5.6,1.9c-1,2-0.2,4.5,1.9,5.6l47.1,23.5    c0.6,0.3,1.2,0.4,1.9,0.4c0.6,0,1.3-0.1,1.9-0.4L100.2,61C102.2,60,103,57.5,102,55.4z" id="svg_15"/>
	</g>
</g></g></svg>